# xmcd
#
# Track frame offsets:
#	150
#	12370
#	23940
#	33275
#	44336
#	57489
#	67120
#	76061
#	88876
#	102435
#	114034
#	125315
#	135080
#	145110
#	154830
#	167651
#	180741
#	189714
#	199904
#	212471
#	222498
#	235222
#	244895
#	255093
#
# Disc length: 3516 seconds
#
# Revision: 0
# Processed by: cddbd v1.5.2PL0 Copyright (c) Steve Scherf et al.
# Submitted via: dBpowerAMP V4.0
#
DISCID=490dba18
DTITLE=Various Artist - The Complete Cobra Singles disc2
DYEAR=1900
DGENRE=Blues
TTITLE0=LITTLE WILLIE FOSTER - Crying The Blues
TTITLE1=LITTLE WILLIE FOSTER - Little Girl
TTITLE2=HAROLD BURRAGE - Messed Up
TTITLE3=HAROLD BURRAGE - Messed Up
TTITLE4=MAGIC SAM - All Your Love
TTITLE5=MAGIC SAM - Love Me With A Feeling
TTITLE6=THE CALVES - Lonely Lonely Village
TTITLE7=THE CALVES - Born With Rhythm
TTITLE8=OTIS RUSH - Love That Woman
TTITLE9=OTIS RUSH - Jump Sister Bessie
TTITLE10=CLARENCE JOLLY - Changing Love
TTITLE11=CLARENCE JOLLY - Changing Love
TTITLE12=CLARENCE JOLLY - Changing Love
TTITLE13=GUITAR SHORTY - Irma Lee
TTITLE14=HAROLD BURRAGE - Stop For The Red Light
TTITLE15=HAROLD BURRAGE - Satisfied
TTITLE16=BETTY EVERETT - My Life Depends On You
TTITLE17=BETTY EVERETT - My Love
TTITLE18=DUKE JENKINS and HIS ORCHESTRA - Where Can My Loved One Be
TTITLE19=DUKE JENKINS and HIS ORCHESTRA - Shake It
TTITLE20=MAGIC SAM - Everything Gonna Be Alright
TTITLE21=MAGIC SAM - Look Watcha Done
TTITLE22=HAROLD BURRAGE and WILLIE DIXON BAND - She Knocks Me Out
TTITLE23=HAROLD BURRAGE and WILLIE DIXON BAND - A Heart
EXTD=
EXTT0=
EXTT1=
EXTT2=
EXTT3=
EXTT4=
EXTT5=
EXTT6=
EXTT7=
EXTT8=
EXTT9=
EXTT10=
EXTT11=
EXTT12=
EXTT13=
EXTT14=
EXTT15=
EXTT16=
EXTT17=
EXTT18=
EXTT19=
EXTT20=
EXTT21=
EXTT22=
EXTT23=
PLAYORDER=
